<?xml version="1.0" encoding="UTF-8"?><svg id="a" xmlns="http://www.w3.org/2000/svg" viewBox="0 0 320.21 320.21"><defs><style>.b{fill:none;}.c{fill:#4ebece;}.d{fill:none;stroke:#1d1d1b;stroke-miterlimit:10;}.e{fill:#db6462;}.f{fill:#1d1d1b;}</style></defs><circle class="b" cx="160.11" cy="160.11" r="160.11"/><g><path class="f" d="M262.73,218.26c6.82-4.33,11.07-12.26,11.07-21.83,0-13.05-8.5-24.44-23.68-24.44h-32.79v82.59h10.93v-32.79h21.86c2.57,0,5-.37,7.26-1.07,1.91-.59,3.71-1.43,5.35-2.46Zm-12.91-50.52c18.67,0,29.6,13.81,29.6,29.15,0,17-12.75,29.15-29.6,29.15h-15.94v32.79h-22.17v-91.09h38.11Z"/><polygon class="b" points="272.13 198.41 272.13 198.71 263.18 198.71 263.33 197.95 272.29 197.95 272.13 198.41"/><rect class="b" x="263.33" y="194.92" width="8.8" height=".75"/><polygon class="b" points="271.98 200.99 271.68 201.75 262.72 201.75 262.87 200.99 271.98 200.99"/><polygon class="b" points="271.83 191.88 271.83 192.64 263.02 192.64 262.72 191.88 271.83 191.88"/><polygon class="b" points="271.07 188.84 271.38 189.6 262.11 189.6 261.66 188.84 271.07 188.84"/><polygon class="b" points="271.22 204.02 270.92 204.78 261.51 204.78 261.96 204.02 271.22 204.02"/><polygon class="b" points="269.86 185.81 270.16 186.56 260.29 186.56 259.84 185.81 269.86 185.81"/><polygon class="b" points="270.16 207.06 269.71 207.82 259.53 207.82 260.14 207.06 270.16 207.06"/><polygon class="b" points="268.19 182.77 268.79 183.53 257.71 183.53 256.65 182.77 268.19 182.77"/><polygon class="b" points="268.49 210.1 267.88 210.86 255.74 210.86 256.95 210.1 268.49 210.1"/><polygon class="b" points="265.61 179.73 266.36 180.49 228.41 180.49 228.41 179.73 265.61 179.73"/><polygon class="b" points="266.36 213.13 265.61 213.89 228.41 213.89 228.41 213.13 266.36 213.13"/><polygon class="b" points="262.87 216.17 261.87 216.73 261.51 216.93 256.95 216.93 228.41 216.93 228.41 216.17 262.87 216.17"/><path class="e" d="M262.73,218.26c-1.64,1.03-3.44,1.87-5.35,2.46l-.43-1.51v-2.28h4.56l.36-.2,.86,1.53Z"/><polygon class="b" points="262.72 177.46 228.41 177.46 228.41 176.7 261.66 176.7 262.72 177.46"/><path class="f" d="M248.3,182.16c8.65,0,13.51,6.68,13.51,14.43,0,8.34-4.86,14.57-13.51,14.57h-20.04v-29h20.04Zm8.35,14.12c0-5.01-3.04-9.56-8.96-9.56h-13.81v20.19h13.81c5.77,0,8.96-5.32,8.96-10.63Z"/><path class="b" d="M228.41,219.21h28.54c-1.21,.3-2.73,.6-3.95,.76h-24.59v-.76Z"/><path class="b" d="M256.5,174.42h-28.09v-.76h22.77c1.67,.15,3.8,.46,5.32,.76Z"/><path class="e" d="M271.68,201.75l.3-.76h-9.11l-.15,.76h8.96Zm.45-6.08v-.75h-8.8v.75h8.8Zm0,3.04v-.3l.16-.46h-8.96l-.15,.76h8.95Zm-.91,5.31h-9.26l-.45,.76h9.41l.3-.76Zm-9.11-14.42h9.27l-.31-.76h-9.41l.45,.76Zm.61,2.28l.3,.76h8.81v-.76h-9.11Zm7.44,15.18h-10.02l-.61,.76h10.18l.45-.76Zm-.3-21.25h-10.02l.45,.75h9.87l-.3-.75Zm-12.91,24.29l-1.21,.76h12.14l.61-.76h-11.54Zm-28.54-29.61h37.95l-.75-.76h-37.2v.76Zm28.24,2.28l1.06,.76h11.08l-.6-.76h-11.54Zm-28.24-6.07v.76h34.31l-1.06-.76h-33.25Zm-11.08-4.71h32.79c15.18,0,23.68,11.39,23.68,24.44,0,9.57-4.25,17.5-11.07,21.83l-.86-1.53,1-.56h-34.46v.76h28.54v2.28h-28.54v.76h24.59c1.22-.16,2.74-.46,3.95-.76l.43,1.51c-2.26,.7-4.69,1.07-7.26,1.07h-21.86v32.79h-10.93v-82.59Zm44.48,24.6c0-7.75-4.86-14.43-13.51-14.43h-20.04v29h20.04c8.65,0,13.51-6.23,13.51-14.57Zm4.55,16.54h-37.95v.76h37.2l.75-.76Zm-9.86-38.71c-1.52-.3-3.65-.61-5.32-.76h-22.77v.76h28.09Z"/><path class="f" d="M90.23,167.74v19.74h-20.65v71.35h-22.32v-71.35H26.77v-19.74h63.46Zm-5.62,15.48v-11.23H32.39v11.23h20.49v71.36h11.08v-71.36h20.65Z"/><rect class="b" x="33.9" y="180.34" width="49.19" height=".76"/><rect class="b" x="33.9" y="177.3" width="49.19" height=".76"/><rect class="b" x="33.9" y="174.27" width="49.19" height=".76"/><polygon class="e" points="52.88 183.22 32.39 183.22 32.39 181.1 33.9 181.1 83.09 181.1 83.09 180.34 84.61 180.34 84.61 183.22 63.96 183.22 63.96 254.58 52.88 254.58 52.88 183.22"/><polygon class="e" points="32.39 181.1 32.39 178.06 33.9 178.06 83.09 178.06 83.09 177.3 84.61 177.3 84.61 180.34 83.09 180.34 33.9 180.34 33.9 181.1 32.39 181.1"/><polygon class="e" points="32.39 178.06 32.39 175.03 33.9 175.03 83.09 175.03 83.09 174.27 84.61 174.27 84.61 177.3 83.09 177.3 33.9 177.3 33.9 178.06 32.39 178.06"/><polygon class="e" points="32.39 171.99 84.61 171.99 84.61 174.27 83.09 174.27 33.9 174.27 33.9 175.03 32.39 175.03 32.39 171.99"/></g><g><path class="f" d="M130.24,72.38h7.69l.29,.72h-7.55l-.44-.72Zm1.45,2.9h7.55l.29,.72h-7.4l-.43-.72Zm1.45,2.9h7.55l.29,.72h-7.4l-.44-.72Zm32.22,66.47l-.58,.73-.58-.73h1.16Zm26.99-72.27h7.55v.72h-7.55v-.72Zm0,2.9h7.55v.72h-7.55v-.72Zm0,2.9h7.55v.72h-7.55v-.72Zm0,66.76h7.55v.72h-7.55v-.72Zm0,2.9h7.55v.58h-7.55v-.58Z"/><g><path class="f" d="M279.42,92.26h-20.02c0-4.93-3.05-8.99-9.01-8.99-4.65,0-9.13,2.76-9.13,8.42,0,6.52,7.98,7.69,15.38,9.86,15.53,4.65,22.77,13.35,22.77,26.99,0,15.38-13.06,28.16-29.45,28.16-19.02,0-29.76-12.77-29.76-28.44h20.75c0,5.09,4.06,9.15,9.01,9.15,5.37,0,8.71-3.05,8.71-7.56,0-6.52-8.57-8.41-15.68-10.88-14.66-5.23-22.79-12.05-22.79-26.99s13.21-28.16,29.6-28.16c19.31,0,28.45,12.33,29.6,28.44Zm-16.1-4.06h10.88c-.87-8.55-7.26-20.31-24.23-20.31-12.93,0-23.83,9.96-24.74,22.4-.05,.56-.08,1.13-.08,1.7,0,10.74,4.06,17.56,20.02,23.23,8.28,3.04,18.3,5.21,18.3,14.65,0,4.81-2.61,8.15-6.24,9.98-2.16,1.09-4.7,1.64-7.26,1.64-7.4-.16-12.05-4.36-13.35-9.15h-11.32c.28,10.88,10.88,20.31,24.67,20.31,8.01,0,15.15-3.83,19.64-9.72,3.05-4.02,4.88-9.01,4.88-14.38,0-14.65-8.71-20.02-22.06-23.79-8.55-2.47-15.97-4.5-15.97-13.06,0-.23,0-.47,.01-.7,.35-7.16,5.9-11.79,13.5-11.79,8.99,0,12.05,5.37,13.35,8.99Z"/><polygon class="b" points="270.15 117.07 270.43 117.8 256.35 117.8 254.76 117.07 270.15 117.07"/><polygon class="b" points="269.12 140.74 268.7 141.31 268.54 141.6 257.08 141.6 257.92 141.19 258.82 140.74 269.12 140.74"/><polygon class="b" points="267.67 114.03 268.4 114.9 248.51 114.9 246.34 114.03 267.67 114.03"/><polygon class="b" points="266.51 143.78 265.79 144.5 249.97 144.5 249.97 143.78 266.51 143.78"/><polygon class="b" points="264.63 111.86 241.55 111.86 240.39 111.13 263.75 111.13 264.63 111.86"/><polygon class="b" points="259.69 108.95 236.32 108.95 234.73 108.08 257.52 108.08 259.69 108.95"/><path class="c" d="M269.62,142.91c-4.49,5.89-11.63,9.72-19.64,9.72-13.79,0-24.39-9.43-24.67-20.31h11.32c1.31,4.79,5.95,8.99,13.35,9.15,2.56,0,5.1-.56,7.26-1.64l.69,1.37-.84,.41h11.46l1.07,1.31Zm-3.11,.87h-16.54v.72h15.81l.72-.72Z"/><polygon class="b" points="250.84 105.91 232.12 105.91 231.39 105.18 248.08 105.18 250.84 105.91"/><polygon class="b" points="241.99 102.99 229.5 102.99 229.08 102.27 240.83 102.27 241.99 102.99"/><polygon class="b" points="239.38 81.37 238.35 82.25 228.92 82.25 229.36 81.37 239.38 81.37"/><polygon class="b" points="238.07 99.95 227.77 99.95 227.62 99.23 237.35 99.23 238.07 99.95"/><polygon class="b" points="236.76 84.43 236.32 85.15 227.77 85.15 227.91 84.43 236.76 84.43"/><polygon class="b" points="235.6 96.32 235.9 97.04 227.03 97.04 226.89 96.32 235.6 96.32"/><polygon class="b" points="235.6 87.33 235.31 88.19 226.89 88.19 227.19 87.33 235.6 87.33"/><polygon class="b" points="235.02 93.28 235.17 94 226.61 94 226.61 93.28 235.02 93.28"/><polygon class="b" points="235.02 91.1 226.61 91.1 226.61 90.38 235.02 90.38 235.02 90.99 235.02 91.1"/><path class="c" d="M241.55,111.86h23.08l-.88-.72h-23.37l1.16,.72Zm4.79,2.17l2.17,.87h19.89l-.72-.87h-21.34Zm10.01,3.77h14.08l-.28-.72h-15.38l1.59,.72Zm-26.85-14.8h12.49l-1.16-.72h-11.75l.43,.72Zm2.61,2.91h18.72l-2.76-.72h-16.69l.72,.72Zm4.21,3.04h23.37l-2.17-.87h-22.79l1.59,.87Zm-9.72-14.94h8.57l-.16-.72h-8.41v.72Zm.43,3.04h8.86l-.3-.72h-8.71l.14,.72Zm10.31,2.19h-9.73l.16,.72h10.3l-.72-.72Zm7.83,15.97c-15.95-5.67-20.02-12.49-20.02-23.23,0-.57,.03-1.14,.08-1.7l1.37,.1v.72h8.41v-.12h1.46c-.01,.23-.01,.47-.01,.7,0,8.55,7.41,10.58,15.97,13.06,13.35,3.78,22.06,9.15,22.06,23.79,0,5.37-1.82,10.35-4.88,14.38l-1.07-1.31,.16-.3,.43-.57h-10.3l-.91,.45-.69-1.37c3.62-1.82,6.24-5.16,6.24-9.98,0-9.43-10.01-11.61-18.3-14.65Z"/><path class="c" d="M239.38,81.37h-10.01l-.44,.88h9.43l1.02-.88Zm-3.05,3.78l.44-.72h-8.85l-.14,.72h8.55Zm-11.09,5.12c.91-12.43,11.81-22.4,24.74-22.4,16.98,0,23.37,11.76,24.23,20.31h-10.88c-1.31-3.62-4.36-8.99-13.35-8.99-7.6,0-13.15,4.63-13.5,11.79h-1.46v-.61h-8.41l-1.37-.1Zm10.36-2.95h-8.41l-.3,.87h8.42l.28-.87Z"/><polygon class="c" points="201.36 142.04 201.36 149.73 190.91 149.73 190.91 142.77 192.36 142.77 199.9 142.77 199.9 142.04 201.36 142.04"/><path class="f" d="M141.13,96.76l10.48,22.64,13.17,28.44,24.09-51.08h2.03v52.97h10.45V70.78h-10.6l-23.95,50.94h-4.06l-1.66-3.55-22.14-47.4h-10.89v78.95h10.6v-52.97h2.47Zm65.6-30.04v87.08h-21.19v-38.75l-19.01,41.65h-3.48l-19.02-41.94v39.04h-21.34V66.71h19.89l22.2,47.02,22.35-47.02h19.6Z"/><polygon class="b" points="158.25 115.92 158.55 116.65 152.01 116.65 151.57 115.92 158.25 115.92"/><polygon class="b" points="156.94 113.01 157.24 113.73 150.71 113.73 150.27 113.01 156.94 113.01"/><polygon class="b" points="155.49 110.11 155.79 110.84 149.26 110.84 148.82 110.11 155.49 110.11"/><polygon class="b" points="154.19 107.21 154.48 107.94 147.95 107.94 147.51 107.21 154.19 107.21"/><path class="c" d="M192.36,107.94h7.54v-.72h-7.54v.72Zm0,2.9h7.54v-.72h-7.54v.72Zm0,2.9h7.54v-.72h-7.54v.72Zm0,2.91h7.54v-.72h-7.54v.72Zm0,2.9h7.54v-.72h-7.54v.72Zm0,2.9h7.54v-.72h-7.54v.72Zm0,2.91h7.54v-.72h-7.54v.72Zm0,2.9h7.54v-.72h-7.54v.72Zm0,2.9h7.54v-.72h-7.54v.72Zm0,2.91h7.54v-.72h-7.54v.72Zm0,2.9h7.54v-.72h-7.54v.72Zm7.54-55.15v-.72h-7.54v.72h7.54Zm0,2.9v-.72h-7.54v.72h7.54Zm0,2.9v-.72h-7.54v.72h7.54Zm0,2.91v-.72h-7.54v.72h7.54Zm0,2.9v-.72h-7.54v.72h7.54Zm0,2.9v-.72h-7.54v.72h7.54Zm0,2.91v-.72h-7.54v.72h7.54Zm0,2.9v-.72h-7.54v.72h7.54Zm0,2.9v-.72h-7.54v.72h7.54Zm-7.54,34.11v.72h7.54v-.72h-7.54Zm-26.71-7.98l-.43-.72h-6.97l.44,.72h6.96Zm-.14,11.62l.44-.72h-2.33l.44,.72h1.45Zm1.6-8.71l-.44-.72h-7.12l.44,.72h7.12Zm-.3,5.8l.44-.72h-4.94l.44,.72h4.06Zm-5.37-2.76h6.68l.3-.43-.44-.44h-6.97l.44,.87Zm-6.68-14.66h6.53l-.44-.72h-6.52l.43,.72Zm10.01,25.4l-13.17-28.44,1.27-.58,.44,.72h6.68l-.28-.72,1.38-.65,1.66,3.55h4.06l23.95-50.94h10.6v71.27h-9.01v.72h-1.45v-46.01h-2.03l-24.09,51.08Zm-8.71-22.49h6.68l-.44-.72h-6.66l.43,.72Zm7.7,2.17h-6.83l.44,.72h6.82l-.43-.72Z"/><polygon class="b" points="152.88 104.3 153.18 105.03 146.64 105.03 146.2 104.3 152.88 104.3"/><polygon class="b" points="151.43 101.4 151.87 102.13 145.34 102.13 144.9 101.4 151.43 101.4"/><polygon class="b" points="150.12 98.5 150.42 99.23 143.89 99.23 143.45 98.5 150.12 98.5"/><polygon class="b" points="148.67 95.59 149.11 96.32 142.44 96.32 142 95.59 148.67 95.59"/><polygon class="b" points="147.37 92.69 147.66 93.42 140.99 93.42 140.55 92.69 147.37 92.69"/><polygon class="b" points="146.06 89.8 146.36 90.52 139.53 90.52 139.1 89.8 146.06 89.8"/><polygon class="b" points="144.75 86.89 145.05 87.61 138.08 87.61 137.65 86.89 144.75 86.89"/><polygon class="b" points="143.45 83.99 143.74 84.71 136.49 84.71 136.05 83.99 143.45 83.99"/><polygon class="b" points="142 81.09 142.3 81.81 135.04 81.81 134.6 81.09 142 81.09"/><path class="c" d="M152.01,116.65h6.53l-.3-.72h-6.68l.44,.72Zm3.78-5.81l-.3-.72h-6.68l.44,.72h6.53Zm1.45,2.9l-.3-.72h-6.68l.44,.72h6.53Zm-14.8-17.42h6.68l-.44-.72h-6.68l.44,.72Zm1.31-11.61l-.3-.72h-7.4l.44,.72h7.26Zm1.31,2.9l-.3-.72h-7.1l.43,.72h6.97Zm-1.16,11.62h6.53l-.3-.72h-6.68l.44,.72Zm2.47-8.71l-.3-.72h-6.96l.43,.72h6.83Zm-1.02,11.61h6.53l-.44-.72h-6.53l.44,.72Zm6.28,17.27l-10.48-22.64h-2.47v52.97h-10.6V70.78h10.89l22.14,47.4-1.38,.65h-6.83l-1.27,.58Zm-3.95-25.98l-.3-.72h-6.82l.44,.72h6.68Zm-1.02,11.61h6.53l-.3-.72h-6.68l.44,.72Zm7.54,2.19h-6.68l.44,.72h6.53l-.3-.72Zm-19.15-25.4h7.26l-.3-.72h-7.4l.44,.72Z"/></g><polygon class="b" points="257.37 149.73 254.62 150.45 249.97 150.45 249.97 149.73 257.37 149.73"/><polygon class="b" points="263.03 146.68 262.02 147.41 249.97 147.41 249.97 146.68 263.03 146.68"/><polygon class="b" points="270.72 137.83 270.29 138.55 261.44 138.55 262.16 137.83 270.72 137.83"/><polygon class="b" points="272.03 134.78 271.74 135.65 263.61 135.65 264.05 134.78 272.03 134.78"/><polygon class="b" points="272.76 131.88 272.61 132.6 264.63 132.6 264.77 131.88 272.76 131.88"/><polygon class="b" points="273.05 128.97 272.9 129.7 264.92 129.7 264.92 128.97 273.05 128.97"/><polygon class="b" points="272.9 125.93 272.9 126.65 264.48 126.65 264.34 125.93 272.9 125.93"/><polygon class="b" points="272.47 123.02 272.76 123.75 263.32 123.75 262.89 123.02 272.47 123.02"/><polygon class="b" points="271.45 119.98 271.74 120.7 261.15 120.7 260.27 119.98 271.45 119.98"/></g><g><path class="f" d="M76.15,126.14c-.44-.09-.78-.26-1-.51-.23-.25-.46-.57-.7-.98-.15-.26-.29-.59-.44-.99-.15-.4-.29-.89-.44-1.46-.15-.64-.29-1.29-.44-1.93-.15-.64-.26-1.13-.33-1.46-.2,.97-.41,1.92-.63,2.85-.22,.93-.44,1.8-.66,2.63-.22,.83-.44,1.58-.66,2.27-.22,.69-.44,1.27-.66,1.75-.05,.13-.17,.19-.36,.19-.2,0-.47-.08-.8-.25-.26-.13-.44-.29-.54-.47-.1-.18-.15-.4-.15-.63,0-.15,.19-.73,.58-1.76,.09-.22,.29-.85,.61-1.9,.31-1.05,.75-2.53,1.32-4.46,.2-.66,.4-1.57,.61-2.73s.4-2.57,.61-4.24c.04-.04,.13-.23,.28-.58,.09-.26,.26-.38,.5-.38,.68,0,1.14,.12,1.38,.36v1.05c0,.44,.04,.96,.11,1.54s.13,1.1,.17,1.54c.04,.44,.05,.82,.05,1.13,.05,.66,.15,1.22,.28,1.67,.13,.45,.24,.93,.33,1.45,.2,1.23,.56,2.21,1.07,2.95,.88-2.46,1.6-4.66,2.16-6.6,.56-1.94,.96-3.63,1.2-5.08,.07-.29,.35-.44,.83-.44,.68,0,1.07,.22,1.16,.66,.13,.59,.19,1.35,.19,2.29,0,.15,0,.37-.01,.66,0,.29-.02,.68-.04,1.16-.02,.2-.03,.39-.03,.55v.91c0,.15,0,.28,.03,.39,.17,3.89,.52,7.14,1.08,9.75,0,.04,0,.06,.01,.07,0,0,.01,.02,.01,.04,0,.31-.3,.48-.91,.5-.37,0-.75-.18-1.16-.52-.37-.31-.64-.82-.83-1.52-.2-.62-.31-1.53-.33-2.73v-1.13c0-.42,0-.83-.01-1.23,0-.39-.02-.75-.03-1.07,0-.32-.02-.55-.04-.7-.05,.2-.15,.5-.28,.91-.13,.4-.27,.85-.43,1.34-.16,.49-.32,.98-.48,1.49-.17,.5-.31,.96-.44,1.36-.33,.9-.53,1.42-.61,1.54-.28,.52-.61,.77-.99,.77h-.11Z"/><path class="f" d="M86.34,119.28c.04-.17,.17-.31,.41-.44,.28-.15,.43-.29,.47-.44,.02-.07,.05-.32,.08-.74,.04-.42,.08-1.05,.14-1.87-1.01-.18-1.52-.57-1.52-1.16,.02-.53,.34-.96,.96-1.27l1.76-.71c.35-.18,.73-.35,1.16-.5,.42-.15,.89-.29,1.41-.44,.46-.13,.91-.25,1.35-.36,.44-.11,.89-.22,1.35-.33,.04-.02,.15-.03,.33-.03,.5,0,1.07,.19,1.74,.58,.02,.07,.06,.21,.14,.41,.07,.2,.11,.35,.11,.44,0,.17-.07,.29-.19,.36-.35,.15-.77,.3-1.27,.46-.5,.16-1.07,.33-1.74,.51s-1.24,.35-1.74,.51c-.5,.16-.92,.31-1.27,.45-.07,.22-.14,.6-.21,1.13-.07,.53-.12,1.22-.15,2.06,.29,.11,.63,.17,1.02,.17,.15,0,.33-.01,.54-.04s.46-.06,.76-.1c.29-.04,.55-.07,.76-.1s.39-.04,.54-.04c.51,0,.96,.11,1.32,.33,.26,.37,.39,.61,.39,.72,0,.13-.06,.23-.19,.3-.02,.02-.06,.05-.12,.11-.06,.05-.15,.15-.26,.28-.11,.15-.29,.22-.55,.22-.39,.07-1.09,.13-2.12,.17-.86,.04-1.55,.15-2.07,.33-.35,1.29-.52,2.36-.52,3.22,0,.5,.07,.92,.22,1.27,.75,.53,1.99,.8,3.72,.8,.13,0,.25,0,.37-.01,.12,0,.25-.01,.4-.01s.3-.07,.47-.21c.17-.14,.3-.21,.41-.21,.04,0,.06,0,.08-.01,.02,0,.05-.01,.08-.01,.44,0,.72,.4,.85,1.18,0,.04,0,.07,.01,.11,0,.04,.01,.07,.01,.11,0,.26-.08,.48-.23,.67-.16,.19-.36,.3-.62,.32-.17,0-.33,0-.5,.01s-.33,.01-.5,.01c-1.76,0-3.36-.18-4.79-.55-.51-.13-.98-.41-1.41-.85-.42-.44-.66-.94-.72-1.49-.04-.4-.07-.79-.1-1.16s-.04-.73-.04-1.1,.01-.72,.04-1.06,.06-.67,.1-.98c-.46-.33-.69-.63-.69-.91v-.11Z"/><path class="f" d="M105.26,126.83c0,.11,0,.21-.01,.29,0,.08-.02,.16-.04,.23-.09,.28-.28,.41-.55,.41-.53-.02-.97-.24-1.31-.67-.34-.43-.53-.91-.56-1.45-.06-.68-.08-1.39-.08-2.15,0-1.21,.08-3.13,.25-5.76,.07-1.1,.13-2.09,.17-2.96,.04-.87,.06-1.63,.06-2.27v-.52h-.36c-.22,0-.47,0-.76,.03-.28,.02-.6,.06-.95,.11-.2,.04-.36,.07-.47,.1-.11,.03-.27,.04-.47,.04-.88,0-1.62-.24-2.2-.72-.22-.46-.33-.71-.33-.74,0-.15,.06-.29,.19-.41,.29-.09,.63-.18,1.02-.26,.39-.08,.86-.15,1.43-.21,1.54-.17,2.74-.46,3.58-.88,.7,.2,1.43,.3,2.2,.3s1.56-.1,2.37-.3c.11-.02,.28-.06,.52-.12,.24-.06,.49-.13,.74-.21,.44-.13,.87-.19,1.29-.19,.06,0,.11,0,.18,.01,.06,0,.12,.01,.18,.01,.28,0,.41,.1,.41,.3v.11c.5,0,.74,.17,.74,.5-.17,.66-.48,1.05-.94,1.16-.59,.15-1.34,.31-2.25,.48-.91,.17-2.1,.38-3.57,.62-.18,2.31-.32,4.41-.41,6.28s-.14,3.59-.14,5.15c0,.59,0,1.16,.01,1.72,0,.56,.02,1.12,.04,1.69v.28Z"/></g><g><path class="f" d="M28.39,154.88c-.05-1.01-.08-2.08-.08-3.22,0-1.95,.11-4.38,.33-7.3l.58-7.38c.02-.4,.38-.61,1.07-.61,.15,0,.35,.05,.61,.16,.26,.11,.53,.29,.83,.52,.29,.57,.62,1.3,.99,2.2s.76,1.98,1.18,3.25c.42,1.21,.83,2.37,1.23,3.47,.4,1.1,.77,2.07,1.12,2.89l1.1-11.95c.04-.37,.3-.55,.8-.55,.17,0,.36,.03,.58,.08l.52,.14c.18,.07,.3,.2,.36,.39l-.74,7.41c-.15,1.49-.26,2.84-.34,4.05-.08,1.21-.12,2.31-.12,3.3v.95c0,.32,.02,.66,.05,1,0,.28-.11,.52-.34,.73-.23,.21-.48,.32-.76,.32-.57,0-1.05-.39-1.43-1.16-.29-.57-.62-1.27-.96-2.11-.35-.83-.72-1.76-1.12-2.77-.4-1.01-.8-2.09-1.23-3.25-.42-1.16-.85-2.35-1.29-3.58-.04-.11-.08-.16-.14-.16-.13,0-.21,.13-.25,.38-.07,.66-.13,1.37-.17,2.13-.04,.76-.06,1.55-.07,2.36,0,.81-.01,1.62-.01,2.42v2.29c0,.7,0,1.4,.03,2.11s.05,1.43,.08,2.16v.11c0,.5-.16,.83-.47,.99-.13,.13-.27,.19-.41,.19s-.31-.06-.5-.17l-.52-.25c-.24-.07-.39-.29-.44-.66l-.05-.91Z"/><path class="f" d="M41.7,154.91c0-.72,.2-1.57,.61-2.56,.55-1.34,.85-2.31,.91-2.92,0-.15-.12-.31-.36-.5-.26-.2-.38-.36-.38-.47s.04-.2,.11-.28c.07-.11,.27-.19,.58-.25,.31-.07,.49-.17,.52-.3,.33-.9,.85-2.61,1.57-5.12,.31-1.1,.6-2.06,.87-2.88,.27-.82,.52-1.52,.76-2.11,.11-.26,.34-.39,.69-.39,.26,0,.49,.08,.69,.25,.51,.44,.84,1.1,.99,1.98,.06,.37,.11,.74,.17,1.13,.05,.39,.1,.76,.14,1.13,.46,2.17,.93,4.14,1.4,5.91s.96,3.37,1.46,4.81c.11,.31,.17,.57,.17,.77,0,.37-.16,.69-.47,.96-.29,.26-.51,.39-.63,.39-.9-.17-1.47-.89-1.71-2.18-.24-1.39-.54-2.56-.91-3.5l-1.87,.17c-.72,.09-1.28,.31-1.68,.66-.09,.29-.21,.69-.34,1.19s-.29,1.11-.45,1.85c-.31,1.36-.62,2.38-.91,3.06-.09,.22-.28,.33-.55,.33h-.18c-.07,0-.13-.02-.21-.05-.61-.18-.93-.46-.96-.83v-.25Zm6.69-7.82c-.04-.37-.08-.74-.14-1.12-.06-.38-.13-.77-.22-1.17-.09-.37-.18-.73-.26-1.1-.08-.37-.17-.73-.26-1.1-.55,1.54-1.03,3.07-1.43,4.57,.29-.05,1.06-.08,2.31-.08Z"/><path class="f" d="M56.76,147.25c.17-.46,.38-1.05,.63-1.76,.26-.72,.57-1.71,.94-2.97,.31-1.1,.6-2.06,.87-2.88,.27-.82,.52-1.52,.76-2.11,.11-.26,.34-.39,.69-.39,.13,0,.27,.02,.41,.06,.15,.04,.27,.1,.36,.19,.51,.44,.84,1.1,.99,1.98,.05,.37,.14,.77,.25,1.21,.11,.44,.19,.84,.25,1.21,.17,1.08,.36,2.2,.58,3.36,.22,1.16,.45,2.28,.7,3.37,.25,1.09,.5,2.12,.76,3.07,.26,.96,.51,1.78,.77,2.48,.11,.31,.17,.57,.17,.77,0,.37-.16,.69-.47,.96-.29,.26-.53,.39-.72,.39-.9-.17-1.47-.89-1.71-2.18-.06-.35-.13-.77-.22-1.27s-.19-1-.29-1.5c-.1-.5-.19-.98-.26-1.42-.07-.44-.12-.79-.14-1.05-.07,0-.14,0-.19-.01-.06,0-.13-.01-.22-.01-.31,0-.65,.02-1.01,.05-.36,.04-.7,.08-1.03,.12-.33,.05-.62,.09-.88,.14-.26,.05-.43,.08-.52,.1-.11,.29-.26,.71-.44,1.25s-.31,1.03-.39,1.47c-.15,.68-.28,1.2-.39,1.56-.11,.36-.24,.71-.39,1.06-.07,.15-.2,.3-.39,.47s-.41,.25-.69,.25c-.31-.04-.56-.12-.76-.23-.19-.12-.29-.27-.29-.45,.02-.35,.1-.8,.25-1.35,.15-.55,.34-1.12,.58-1.71,.2-.48,.37-.89,.5-1.25,.13-.36,.21-.68,.25-.98-.31-.09-.53-.21-.66-.34-.13-.14-.19-.3-.19-.48,0-.28,.14-.49,.41-.65,.28-.16,.57-.3,.88-.43l.25-.11Zm3.88-5.98c-.15,.39-.3,.84-.45,1.35-.16,.51-.31,1.05-.47,1.6s-.31,1.08-.45,1.6c-.15,.51-.28,.96-.39,1.35,.15-.04,.48-.06,1.01-.07s1.1-.01,1.72-.01c-.04-.35-.09-.79-.17-1.34s-.16-1.02-.25-1.45l-.55-3.03Z"/><path class="f" d="M69.21,151.8c.04-.53,.09-1.12,.15-1.75,.06-.63,.1-1.32,.1-2.05v-3c0-1.27,.01-2.41,.04-3.44,.03-1.03,.12-1.98,.26-2.86,.18-1.05,1.13-1.57,2.84-1.57h.38c.99,.04,1.85,.53,2.59,1.49,.68,.85,1.02,1.8,1.02,2.87,0,.86-.32,1.73-.96,2.59-.57,.77-1.24,1.4-2.01,1.87-.17,.09-.29,.18-.39,.26s-.14,.18-.14,.29c0,.13,.04,.23,.12,.32,.08,.08,.22,.21,.43,.37l.88,.74,3.06,2.87c.62,.59,1.17,1.13,1.62,1.64,.46,.5,.82,.99,1.07,1.45,.05,.09,.08,.17,.08,.25,0,.42-.44,.74-1.32,.96-.97-.74-2.19-1.89-3.64-3.47-.83-.88-1.53-1.62-2.12-2.22-.59-.6-1.08-1.07-1.49-1.42-.04,.24-.08,.67-.12,1.29-.05,.62-.11,1.44-.18,2.45-.09,1.53-.26,2.74-.5,3.64-.04,0-.13,.04-.28,.12-.15,.08-.29,.12-.44,.12-.02,0-.04,0-.05-.01-.02,0-.04-.01-.06-.01-.81-.2-1.21-.76-1.21-1.68,0-.15,0-.32,.03-.51,.02-.19,.05-.39,.08-.59l.14-.99Zm5.32-11.18c-.05-.39-.22-.73-.48-1.05-.27-.31-.69-.47-1.28-.47-.44,0-.72,.14-.83,.41-.04,.26-.07,.52-.1,.79s-.04,.53-.04,.78c0,.24,.03,.85,.08,1.85,0,.2,0,.39,.01,.55,0,.17,.01,.32,.01,.47s0,.29-.01,.44c0,.15-.01,.28-.01,.38,1.52-1.12,2.39-2.21,2.59-3.28,.02-.13,.03-.25,.04-.36,0-.11,.01-.21,.01-.3v-.22Z"/><path class="f" d="M90.09,139.9c-.24-.24-.36-.46-.36-.66,0-.04,.02-.13,.06-.28,.09-.22,.29-.35,.61-.39l.72-.08c1.56,.33,3.18,1.19,4.85,2.59,.44,.37,.8,.75,1.07,1.16,.88,1.3,1.32,2.52,1.32,3.66,0,.64-.12,1.2-.36,1.68-.09,.2-.18,.41-.26,.63-.08,.22-.17,.43-.26,.63-.18,.42-.42,.82-.72,1.18-.29,.37-.58,.73-.85,1.07-.28,.35-.56,.7-.85,1.05-.7,.83-1.33,1.43-1.9,1.82-.18,.22-.38,.44-.59,.66s-.42,.33-.62,.33c-.13,0-.34-.05-.63-.15-.29-.1-.5-.26-.61-.48-.05-.77-.08-1.6-.08-2.48,0-.46,0-1.02,.03-1.68s.05-1.44,.08-2.34c.04-.9,.06-1.68,.08-2.34,.02-.66,.03-1.22,.03-1.68,0-.59-.01-1.16-.04-1.71s-.06-1.07-.1-1.57l-.61-.63Zm2.86,11.43c2.08-2.08,3.11-4.05,3.11-5.92,0-.13,0-.26-.01-.39,0-.13-.02-.26-.04-.38-.17-1.16-1.15-2.18-2.95-3.06-.04,1.05-.07,2.11-.1,3.18-.03,1.07-.04,2.19-.04,3.35v1.6c0,.53,0,1.07,.03,1.62Z"/><path class="f" d="M101.3,146.4c.04-.16,.17-.31,.41-.44,.28-.15,.43-.29,.47-.44,.02-.07,.05-.32,.08-.74,.04-.42,.08-1.05,.14-1.87-1.01-.18-1.52-.57-1.52-1.16,.02-.53,.34-.96,.96-1.27l1.76-.72c.35-.18,.73-.35,1.16-.5,.42-.15,.89-.29,1.41-.44,.46-.13,.91-.25,1.35-.36s.89-.22,1.35-.33c.04-.02,.15-.03,.33-.03,.5,0,1.07,.19,1.74,.58,.02,.07,.06,.21,.14,.41,.07,.2,.11,.35,.11,.44,0,.17-.07,.29-.19,.36-.35,.15-.77,.3-1.27,.46-.5,.16-1.07,.33-1.74,.51-.66,.18-1.24,.35-1.74,.51-.5,.16-.92,.31-1.27,.45-.07,.22-.14,.6-.21,1.13-.07,.53-.12,1.22-.15,2.07,.29,.11,.63,.17,1.02,.17,.15,0,.33-.01,.54-.04,.21-.03,.46-.06,.76-.1,.29-.04,.55-.07,.76-.1s.39-.04,.54-.04c.51,0,.96,.11,1.32,.33,.26,.37,.39,.61,.39,.72,0,.13-.06,.23-.19,.3-.02,.02-.06,.05-.12,.11s-.15,.15-.26,.28c-.11,.15-.29,.22-.55,.22-.39,.07-1.09,.13-2.12,.17-.86,.04-1.55,.15-2.07,.33-.35,1.29-.52,2.36-.52,3.22,0,.5,.07,.92,.22,1.27,.75,.53,1.99,.8,3.72,.8,.13,0,.25,0,.37-.01,.12,0,.25-.01,.4-.01s.3-.07,.47-.21c.17-.14,.3-.21,.41-.21,.04,0,.06,0,.08-.01s.05-.01,.08-.01c.44,0,.72,.39,.85,1.18,0,.04,0,.07,.01,.11,0,.04,.01,.07,.01,.11,0,.26-.08,.48-.23,.68-.16,.19-.36,.3-.62,.32-.17,0-.33,0-.5,.01-.17,0-.33,.01-.5,.01-1.76,0-3.36-.18-4.79-.55-.51-.13-.98-.41-1.41-.85-.42-.44-.66-.94-.72-1.49-.04-.4-.07-.79-.1-1.16s-.04-.73-.04-1.1,.01-.72,.04-1.06,.06-.67,.1-.98c-.46-.33-.69-.63-.69-.91v-.11Z"/></g><path class="f" d="M119.52,233.55c-.89,.25-.88-2.27-.84-2.97,.05-.98,.22-1.92,.7-2.73,.24,.7,.34,1.48,.4,2.18,.04,.45,.17,3.39-.26,3.51Z"/><rect class="f" x="136.32" y="224.22" width="26.12" height="1"/><rect class="f" x="132.43" y="228.67" width="34.72" height="1"/><rect class="f" x="136.92" y="233.12" width="25.52" height="1"/><rect class="f" x="146.66" y="237.57" width="12.29" height="1"/><rect class="f" x="142.62" y="242.02" width="12.41" height="1"/><rect class="f" x="134.98" y="246.47" width="17.83" height="1"/><rect class="f" x="129.88" y="250.92" width="19.46" height="1"/><rect class="f" x="125.53" y="255.37" width="18.36" height="1"/><rect class="f" x="122.06" y="259.83" width="17.35" height="1"/><g><g><path class="f" d="M192.62,225.34c2.75,1.25,1.52,5.78-1.43,5.06l.1-.47c.51-1.5,.96-3.03,1.33-4.59Z"/><path class="f" d="M194.02,213.28c0,4.18-.48,8.22-1.4,12.06-.09-.06-.19-.09-.29-.13-1.7-.58-3.36-1.21-4.99-1.88,.7-3.22,1.06-6.58,1.06-10.05,0-23.21-16.03-41.88-38.82-44.1l.14-4.28c26.17,2.22,44.3,22.73,44.3,48.38Z"/><path class="f" d="M192.33,225.21c.1,.04,.2,.07,.29,.13-.37,1.56-.82,3.09-1.33,4.59l-4.92-2.79c.38-1.24,.71-2.51,.97-3.81,1.63,.67,3.29,1.3,4.99,1.88Z"/><rect class="b" x="178.69" y="212.98" width="8.19" height=".76"/><polygon class="b" points="186.73 216.02 186.73 216.78 178.38 216.78 178.53 216.02 186.73 216.02"/><rect class="b" x="178.53" y="209.94" width="8.2" height=".76"/><polygon class="b" points="186.43 206.91 186.58 207.67 178.23 207.67 178.08 206.91 186.43 206.91"/><path class="b" d="M186.58,219.05l-.3,.76h-6.44c-.47-.25-.93-.5-1.39-.76h8.13Z"/><polygon class="b" points="185.82 203.87 186.13 204.63 177.62 204.63 177.32 203.87 185.82 203.87"/><path class="b" d="M185.97,222.09l-.12,.61c-.46-.2-.92-.4-1.38-.61h1.5Z"/><path class="f" d="M185.85,222.7l-.03,.15h-8.5l.3-.76h6.85c.46,.21,.92,.41,1.38,.61Z"/><polygon class="b" points="185.06 200.84 185.37 201.59 176.86 201.59 176.41 200.84 185.06 200.84"/><polygon class="b" points="184 197.8 184.3 198.56 175.5 198.56 175.04 197.8 184 197.8"/><polygon class="b" points="182.78 194.76 183.09 195.52 173.83 195.52 173.37 194.76 182.78 194.76"/><polygon class="b" points="181.27 191.73 181.72 192.49 171.85 192.49 171.09 191.73 181.27 191.73"/><polygon class="b" points="179.45 188.69 180.05 189.45 169.27 189.45 168.36 188.69 179.45 188.69"/><path class="f" d="M179.84,219.81h-1.76l.15-.76h.22c.46,.26,.92,.51,1.39,.76Z"/><polygon class="b" points="177.93 186.41 165.78 186.41 164.72 185.65 177.17 185.65 177.93 186.41"/><path class="f" d="M176.84,218.13c-.15,1.11-.35,2.19-.6,3.26l-3.86-2.18h-1.52c.27-1.5,.45-3.04,.51-4.62,1.76,1.26,3.59,2.44,5.47,3.54Z"/><path class="f" d="M152.75,182.35c15,3.19,24.42,15.66,24.42,30.93,0,1.65-.11,3.27-.33,4.85-1.88-1.1-3.71-2.28-5.47-3.54,.02-.43,.03-.87,.03-1.31,0-12.72-7.11-23.25-18.73-26.45,0-.75,0-1.51,0-2.26,.01-.71,.05-1.46,.07-2.22Z"/><polygon class="b" points="174.59 182.62 175.35 183.38 160.62 183.38 158.95 182.62 174.59 182.62"/><path class="f" d="M176.24,221.39c.25-1.07,.45-2.15,.6-3.26,.53,.32,1.07,.63,1.61,.92h-.22l-.15,.76h1.76c1.51,.81,3.05,1.57,4.63,2.28h-6.85l-.3,.76h8.5l.03-.15c.49,.22,.99,.43,1.49,.63-.26,1.3-.59,2.57-.97,3.81l4.92,2.79-.1,.47c-.09-.02-.18-.05-.27-.08-7.37-2.53-14.29-6-20.62-10.3l.56-.81h1.52l3.86,2.18Z"/><path class="b" d="M172.01,180.34h-19.3c-.02-.26-.05-.51-.1-.76h18.64l.76,.76Z"/><path class="f" d="M147.2,206.91c-.6,1.51-1.26,2.99-1.96,4.45-.71,1.51-1.48,2.99-2.29,4.45-.83,1.51-1.72,2.99-2.64,4.45-2.28,3.54-4.83,6.91-7.65,10.09,4.44,.79,8.87,.82,13.45,.04,2.34-.4,4.03,1.71,3,3.89-5.95,12.54-18.56,20.85-28.89,29.52-2.6,2.18-6.37-1.55-3.75-3.75,.97-.81,1.97-1.63,2.98-2.44,.8-1.33,1.35-2.7,1.71-4.15l2.97,.42c2.65-2.12,5.32-4.29,7.85-6.57,3.78-3.4,7.26-7.05,9.99-11.18-5.08,.29-10.07-.25-15.1-1.69-1.3-.37-2.03-1.62-1.92-2.83,.05-.58,.29-1.14,.75-1.6,8.35-8.39,14.5-18.34,18.24-29.56-7.17,7.63-14.65,15.02-22.99,21.16l-1.81-2.2c-.16-.87-.3-1.77-.38-2.67,8.72-6.58,16.46-14.61,23.89-22.66,.01-2.73,.01-5.45,.02-8.17,.76-.07,1.53-.1,2.31-.1,2.74,0,5.31,.35,7.69,1.02-.01,1.82-.02,3.63-.03,5.45,0,.85-.02,1.67-.08,3.01,5.26,7.75,11.55,14.15,18.81,19.3-.06,1.58-.24,3.12-.51,4.62l-.56,.81c-8.12-5.52-15.27-12.4-21.14-20.42-.01,.01-.02,.01-.02,.02,.24,.5,.3,1.11,.07,1.81-.61,1.86-1.28,3.69-2.01,5.48Z"/><path class="b" d="M167.6,177.3h-15.87c-.19-.27-.41-.53-.66-.75h15.62l.91,.75Z"/><polygon class="b" points="162.44 174.27 149.41 174.27 149.44 173.51 160.47 173.51 162.44 174.27"/><polygon class="b" points="153.03 171.23 149.51 171.23 149.52 170.96 153.03 171.23"/><path class="f" d="M152.75,182.35c-.02,.76-.06,1.51-.07,2.22,0,.75,0,1.51,0,2.26-2.38-.67-4.95-1.02-7.69-1.02-.78,0-1.55,.03-2.31,.1v-4.29c.76-.05,1.53-.07,2.31-.07,2.73,0,5.32,.27,7.77,.8Z"/><path class="f" d="M152.61,179.58h-9.93v-1.77c0-.18,.02-.35,.05-.51h9c.33,.47,.57,.99,.72,1.52,.07,.25,.13,.5,.16,.76Z"/><path class="f" d="M151.73,177.3h-9c.05-.27,.14-.53,.27-.75h8.07c.25,.22,.47,.48,.66,.75Z"/><path class="f" d="M144.56,160.42c.1-3.41,5.4-3.42,5.3,0l-.14,4.48c-1.55-.13-3.13-.2-4.74-.2-.19,0-.37,0-.56,0l.14-4.29Z"/><path class="f" d="M149.72,164.9l-.14,4.28c-1.5-.15-3.04-.23-4.6-.23-.23,0-.46,0-.69,0l.13-4.25c.19,0,.37,0,.56,0,1.61,0,3.19,.07,4.74,.2Z"/><path class="e" d="M178.23,207.67h8.35l-.15-.76h-8.35l.15,.76Zm8.5,8.35h-8.2l-.15,.76h8.35v-.76Zm-8.2-5.32h8.2v-.76h-8.2v.76Zm8.35,2.28h-8.19v.76h8.19v-.76Zm-.75-8.35l-.31-.76h-8.5l.3,.76h8.51Zm-14.28-12.14h9.87l-.45-.76h-10.18l.76,.76Zm1.98,3.03h9.26l-.31-.76h-9.41l.46,.76Zm11.23,5.32h-8.65l.45,.75h8.51l-.31-.75Zm-9.56-2.28h8.8l-.3-.76h-8.96l.46,.76Zm-14.88-15.18h14.73l-.76-.76h-15.64l1.67,.76Zm18.83,5.31h-11.09l.91,.76h10.78l-.6-.76Zm-13.67-2.28h12.15l-.76-.76h-12.45l1.06,.76Zm.91-9.86h-15.62c-.2-.19-.41-.34-.64-.48-.36-.22-.75-.3-1.15-.34,.06-.21,.1-.44,.11-.69l.02-.77h13.03l-1.97-.76h-11.03l.07-2.28h3.52l-3.51-.27,.06-1.78c22.79,2.22,38.82,20.89,38.82,44.1,0,3.47-.36,6.83-1.06,10.05-.5-.2-1-.41-1.49-.63l.12-.61h-1.5c-1.58-.71-3.12-1.47-4.63-2.28h6.44l.3-.76h-8.13c-.54-.29-1.08-.6-1.61-.92,.22-1.58,.33-3.2,.33-4.85,0-15.27-9.42-27.74-24.42-30.93,.02-.67,.02-1.35-.04-2.01h19.3l-.76-.76h-18.64c-.03-.26-.09-.51-.16-.76-.15-.53-.39-1.05-.72-1.52h15.87l-.91-.75Z"/><polygon class="f" points="149.52 170.96 149.51 171.23 144.21 171.23 144.23 170.68 144.98 170.62 149.52 170.96"/><polygon class="f" points="149.51 171.23 149.44 173.51 144.14 173.51 144.21 171.23 149.51 171.23"/><polygon class="f" points="149.44 173.51 149.41 174.27 144.11 174.27 144.14 173.51 149.44 173.51"/><path class="f" d="M144.98,179.89l6.07,.45h1.66c.06,.66,.06,1.34,.04,2.01-2.45-.53-5.04-.8-7.77-.8-.78,0-1.55,.02-2.31,.07,0-.52,0-1.03,0-1.55l2.3-.18Z"/><path class="f" d="M142.68,179.58h9.93c.05,.25,.08,.5,.1,.76h-1.66l-6.07-.45-2.3,.18v-.49Z"/><path class="f" d="M144.23,170.68l.06-1.72c.23,0,.46,0,.69,0,1.56,0,3.1,.08,4.6,.23l-.06,1.78-4.54-.34-.75,.06Z"/><path class="f" d="M144.42,164.71l-.13,4.25c-24.99,.35-42.73,19.81-42.73,44.32,0,4.48,.6,8.77,1.73,12.8-1.65,.75-3.34,1.44-5.06,2.06-.04,.01-.08,.03-.12,.05-1.41-4.68-2.16-9.68-2.16-14.91,0-26.99,19.93-48.3,48.47-48.57Z"/><polygon class="b" points="144.23 170.68 144.21 171.23 137.54 171.23 144.23 170.68"/><polygon class="b" points="144.14 173.51 144.11 174.27 127.52 174.27 129.5 173.51 144.14 173.51"/><path class="f" d="M144.11,174.27h5.3l-.02,.77c0,.25-.05,.48-.11,.69,.4,.04,.79,.12,1.15,.34,.23,.14,.44,.29,.64,.48h-8.07c.25-.47,.65-.82,1.12-1.04-.02-.15-.04-.3-.03-.47l.02-.77Z"/><path class="b" d="M123.27,176.55h19.73c-.13,.22-.22,.48-.27,.75h-20.67l1.21-.75Z"/><path class="b" d="M142.68,179.58v.49l-3.31,.27h-21.71l1.21-.76h23.81Z"/><path class="f" d="M142.67,181.62v4.29c-14.89,1.08-24.1,12.78-24.1,27.37,0,1.17,.06,2.33,.19,3.46-1.71,1.29-3.46,2.53-5.26,3.69-.46-2.3-.7-4.69-.7-7.15,0-17.05,11.62-30.61,29.87-31.66Z"/><polygon class="b" points="131.32 182.62 129.35 183.38 114.62 183.38 115.38 182.62 131.32 182.62"/><polygon class="b" points="125.25 185.65 124.18 186.41 111.89 186.41 112.49 185.65 125.25 185.65"/><path class="f" d="M120.56,224.2c1.91,1.67,2.36,4.79,2.25,7.27,0,.2-.02,.39-.04,.57-.11,1.38-.44,3.1-1.48,4.01l-2.81,.5c-4.31-1.09-3.02-9.11-.68-11.53,.09-.09,.19-.17,.29-.23,.11-.31,.31-.56,.56-.73,.54-.38,1.31-.38,1.91,.14Z"/><polygon class="b" points="121.6 188.69 120.69 189.45 109.76 189.45 110.37 188.69 121.6 188.69"/><path class="f" d="M119.14,219.41l1.81,2.2c-.88,.66-1.77,1.29-2.68,1.91-5.73,3.96-11.89,7.3-18.63,9.73-3.18,1.15-4.56-3.83-1.53-5.06,.17,.58,.36,1.15,.55,1.72l4.91-2.84c-.1-.33-.2-.66-.28-.99,2.15-.98,4.24-2.06,6.27-3.23h2.93l-.3-.76h-1.33c.89-.53,1.77-1.09,2.64-1.66,.07,.3,.13,.6,.2,.9l2.74-1.36,2.7-.56Z"/><path class="f" d="M116.6,248.92c1.37-3.12,2.45-6.34,3.3-9.65-.3-.53-.63-1.05-1.03-1.49-.36-.38-.46-.82-.39-1.23l2.81-.5c1.43,1.69,2.42,3.82,2.99,6.17,.55-1.01,1.04-2.07,1.43-3.17,.46-1.34,2.5-1.51,2.89,0,.64,2.46,2.77,4.22,3.62,6.63,.23,.64,.02,1.15-.38,1.47-.73,.58-2.1,.5-2.51-.67-.46-1.31-1.29-2.4-2.06-3.52-.56,1.12-1.2,2.19-1.94,3.22-.14,.18-.29,.32-.45,.42,.1,2.45-.16,4.96-.75,7.28l-2.97-.42c.35-1.47,.51-3.01,.5-4.64,0-1.27-.04-2.74-.22-4.22-.66,1.97-1.41,3.92-2.25,5.84-.78,1.76-3.36,.23-2.59-1.52Z"/><path class="f" d="M119.14,219.41l-2.7,.56-2.74,1.36c-.07-.3-.13-.6-.2-.9,1.8-1.16,3.55-2.4,5.26-3.69,.08,.9,.22,1.8,.38,2.67Z"/><polygon class="b" points="118.72 191.73 118.11 192.49 107.94 192.49 108.39 191.73 118.72 191.73"/><polygon class="b" points="116.44 194.76 115.83 195.52 106.57 195.52 106.88 194.76 116.44 194.76"/><polygon class="b" points="114.77 197.8 114.32 198.56 105.51 198.56 105.66 197.8 114.77 197.8"/><polygon class="b" points="113.4 200.84 113.1 201.59 104.6 201.59 104.75 200.84 113.4 200.84"/><polygon class="b" points="112.49 203.87 112.19 204.63 103.84 204.63 103.99 203.87 112.49 203.87"/><path class="f" d="M112.19,222.09l.3,.76h-2.93c.44-.24,.87-.5,1.3-.76h1.33Z"/><polygon class="b" points="111.89 206.91 111.58 207.67 103.38 207.67 103.54 206.91 111.89 206.91"/><polygon class="b" points="111.58 219.05 111.89 219.81 103.54 219.81 103.38 219.05 111.58 219.05"/><polygon class="b" points="111.43 209.94 111.28 210.7 103.08 210.7 103.23 209.94 111.43 209.94"/><polygon class="b" points="111.28 216.02 111.43 216.78 103.23 216.78 103.08 216.02 111.28 216.02"/><rect class="b" x="103.08" y="212.98" width="8.2" height=".76"/><path class="b" d="M110.86,222.09c-.43,.26-.86,.52-1.3,.76h-5.42l-.3-.76h7.02Z"/><path class="f" d="M103.29,226.08c.08,.33,.18,.66,.28,.99l-4.91,2.84c-.19-.57-.38-1.14-.55-1.72,.04-.02,.08-.04,.12-.05,1.72-.62,3.41-1.31,5.06-2.06Z"/><path class="e" d="M125.25,185.65h-12.76l-.6,.76h12.29l1.07-.76Zm6.07-3.03h-15.94l-.76,.76h14.73l1.97-.76Zm-20.04,30.36h-8.2v.76h8.2v-.76Zm-8.05,3.8h8.2l-.15-.76h-8.2l.15,.76Zm8.2-6.84h-8.2l-.15,.76h8.2l.15-.76Zm.46-3.03h-8.35l-.16,.76h8.2l.31-.76Zm.6-3.04h-8.5l-.15,.76h8.35l.3-.76Zm.91-3.03h-8.65l-.15,.75h8.5l.3-.75Zm1.37-3.04h-9.11l-.15,.76h8.81l.45-.76Zm1.67-3.04h-9.56l-.31,.76h9.26l.61-.76Zm2.28-3.03h-10.33l-.45,.76h10.17l.61-.76Zm2.88-3.04h-11.23l-.61,.76h10.93l.91-.76Zm-18.06,31.12h8.35l-.31-.76h-8.2l.16,.76Zm-1.98-6.53c0-24.51,17.74-43.97,42.73-44.32l-.06,1.72-6.69,.55h6.67l-.07,2.28h-14.64l-1.98,.76h16.59l-.02,.77c-.01,.17,0,.32,.03,.47-.47,.22-.87,.57-1.12,1.04h-19.73l-1.21,.75h20.67c-.03,.16-.05,.33-.05,.51v1.77h-23.81l-1.21,.76h21.71l3.31-.27c0,.52,0,1.03,0,1.55-18.25,1.05-29.87,14.61-29.87,31.66,0,2.46,.24,4.85,.7,7.15-.87,.57-1.75,1.13-2.64,1.66h-7.02l.3,.76h5.42c-2.03,1.17-4.12,2.25-6.27,3.23-1.13-4.03-1.73-8.32-1.73-12.8Z"/></g><g><polyline class="d" points="145.29 206.91 147.2 206.91 150.85 206.91"/><polyline class="d" points="143.29 211.36 145.24 211.36 152.88 211.36"/><polyline class="d" points="142.62 215.81 142.95 215.81 157.09 215.81"/><polyline class="d" points="139.74 220.26 140.31 220.26 158.95 220.26"/></g></g><rect class="f" x="147.02" y="142.76" width="1" height="18.26"/></svg>